<?xml version="1.0" standalone="no"?>
<svg xmlns="http://www.w3.org/2000/svg" width="1120" height="557.8499984741211"><g transform="translate(70,20)"><g class="x axis" transform="translate(0,400)" fill="none" font-size="10" font-family="sans-serif" text-anchor="middle"><path class="domain" stroke="#000" d="M0.5,6V0.5H1000.5V6"/><g class="tick" opacity="1" transform="translate(54.4554455445544,0)"><line stroke="#000" y2="6"/><text fill="#000" y="9" dy="-0.5em" style="text-anchor: end;" dx="-.8em" transform="rotate(-90)">No_LI (n=3)</text></g><g class="tick" opacity="1" transform="translate(153.4653465346534,0)"><line stroke="#000" y2="6"/><text fill="#000" y="9" dy="-0.5em" style="text-anchor: end;" dx="-.8em" transform="rotate(-90)">No_SI (n=5)</text></g><g class="tick" opacity="1" transform="translate(252.47524752475243,0)"><line stroke="#000" y2="6"/><text fill="#000" y="9" dy="-0.5em" style="text-anchor: end;" dx="-.8em" transform="rotate(-90)">Yes_1wk_LI (n=4)</text></g><g class="tick" opacity="1" transform="translate(351.4851485148514,0)"><line stroke="#000" y2="6"/><text fill="#000" y="9" dy="-0.5em" style="text-anchor: end;" dx="-.8em" transform="rotate(-90)">Yes_1wk_SI (n=4)</text></g><g class="tick" opacity="1" transform="translate(450.49504950495043,0)"><line stroke="#000" y2="6"/><text fill="#000" y="9" dy="-0.5em" style="text-anchor: end;" dx="-.8em" transform="rotate(-90)">Yes_2wk_LI (n=5)</text></g><g class="tick" opacity="1" transform="translate(549.5049504950495,0)"><line stroke="#000" y2="6"/><text fill="#000" y="9" dy="-0.5em" style="text-anchor: end;" dx="-.8em" transform="rotate(-90)">Yes_2wk_SI (n=4)</text></g><g class="tick" opacity="1" transform="translate(648.5148514851485,0)"><line stroke="#000" y2="6"/><text fill="#000" y="9" dy="-0.5em" style="text-anchor: end;" dx="-.8em" transform="rotate(-90)">Yes_3wk_LI (n=5)</text></g><g class="tick" opacity="1" transform="translate(747.5247524752475,0)"><line stroke="#000" y2="6"/><text fill="#000" y="9" dy="-0.5em" style="text-anchor: end;" dx="-.8em" transform="rotate(-90)">Yes_3wk_SI (n=4)</text></g><g class="tick" opacity="1" transform="translate(846.5346534653465,0)"><line stroke="#000" y2="6"/><text fill="#000" y="9" dy="-0.5em" style="text-anchor: end;" dx="-.8em" transform="rotate(-90)">Yes_4wk_LI (n=5)</text></g><g class="tick" opacity="1" transform="translate(945.5445544554456,0)"><line stroke="#000" y2="6"/><text fill="#000" y="9" dy="-0.5em" style="text-anchor: end;" dx="-.8em" transform="rotate(-90)">Yes_4wk_SI (n=5)</text></g></g><g class="y axis" fill="none" font-size="10" font-family="sans-serif" text-anchor="end"><path class="domain" stroke="#000" d="M-6,400.5H0.5V0.5H-6"/><g class="tick" opacity="1" transform="translate(0,400.5)"><line stroke="#000" x2="-6"/><text fill="#000" x="-9" dy="0.32em">0.00</text></g><g class="tick" opacity="1" transform="translate(0,369.7307692307692)"><line stroke="#000" x2="-6"/><text fill="#000" x="-9" dy="0.32em">0.02</text></g><g class="tick" opacity="1" transform="translate(0,338.96153846153845)"><line stroke="#000" x2="-6"/><text fill="#000" x="-9" dy="0.32em">0.04</text></g><g class="tick" opacity="1" transform="translate(0,308.1923076923077)"><line stroke="#000" x2="-6"/><text fill="#000" x="-9" dy="0.32em">0.06</text></g><g class="tick" opacity="1" transform="translate(0,277.4230769230769)"><line stroke="#000" x2="-6"/><text fill="#000" x="-9" dy="0.32em">0.08</text></g><g class="tick" opacity="1" transform="translate(0,246.65384615384613)"><line stroke="#000" x2="-6"/><text fill="#000" x="-9" dy="0.32em">0.10</text></g><g class="tick" opacity="1" transform="translate(0,215.8846153846154)"><line stroke="#000" x2="-6"/><text fill="#000" x="-9" dy="0.32em">0.12</text></g><g class="tick" opacity="1" transform="translate(0,185.11538461538458)"><line stroke="#000" x2="-6"/><text fill="#000" x="-9" dy="0.32em">0.14</text></g><g class="tick" opacity="1" transform="translate(0,154.34615384615384)"><line stroke="#000" x2="-6"/><text fill="#000" x="-9" dy="0.32em">0.16</text></g><g class="tick" opacity="1" transform="translate(0,123.5769230769231)"><line stroke="#000" x2="-6"/><text fill="#000" x="-9" dy="0.32em">0.18</text></g><g class="tick" opacity="1" transform="translate(0,92.80769230769226)"><line stroke="#000" x2="-6"/><text fill="#000" x="-9" dy="0.32em">0.20</text></g><g class="tick" opacity="1" transform="translate(0,62.03846153846155)"><line stroke="#000" x2="-6"/><text fill="#000" x="-9" dy="0.32em">0.22</text></g><g class="tick" opacity="1" transform="translate(0,31.269230769230774)"><line stroke="#000" x2="-6"/><text fill="#000" x="-9" dy="0.32em">0.24</text></g><g class="tick" opacity="1" transform="translate(0,0.5)"><line stroke="#000" x2="-6"/><text fill="#000" x="-9" dy="0.32em">0.26</text></g></g><text class="x label" text-anchor="middle" style="font: 12px sans-serif;" transform="translate(500,527.8499984741211)">RvInfected</text><text class="y label" text-anchor="middle" style="font: 12px sans-serif;" transform="translate(-50,200)rotate(-90)">simpson_e</text><g class="outlier" transform="translate(54.4554455445544,0)"/><line class="center" x1="54.4554455445544" y1="251.09137323076922" x2="54.4554455445544" y2="172.97478938461538" stroke-dasharray="2,2" stroke-width="1" stroke="black"/><line class="center" x1="153.4653465346534" y1="240.08806507692307" x2="153.4653465346534" y2="215.55150646153848" stroke-dasharray="2,2" stroke-width="1" stroke="black"/><line class="center" x1="252.47524752475243" y1="227.4008976923077" x2="252.47524752475243" y2="162.50884661538464" stroke-dasharray="2,2" stroke-width="1" stroke="black"/><line class="center" x1="351.4851485148514" y1="374.11747046153846" x2="351.4851485148514" y2="191.02936446153845" stroke-dasharray="2,2" stroke-width="1" stroke="black"/><line class="center" x1="450.49504950495043" y1="243.71676215384613" x2="450.49504950495043" y2="223.5437566153846" stroke-dasharray="2,2" stroke-width="1" stroke="black"/><line class="center" x1="549.5049504950495" y1="284.4076446153846" x2="549.5049504950495" y2="187.1647869230769" stroke-dasharray="2,2" stroke-width="1" stroke="black"/><line class="center" x1="648.5148514851485" y1="174.48526246153847" x2="648.5148514851485" y2="146.2044507692308" stroke-dasharray="2,2" stroke-width="1" stroke="black"/><line class="center" x1="747.5247524752475" y1="142.42801092307695" x2="747.5247524752475" y2="98.81015692307693" stroke-dasharray="2,2" stroke-width="1" stroke="black"/><line class="center" x1="846.5346534653465" y1="210.62719323076925" x2="846.5346534653465" y2="132.4411244615385" stroke-dasharray="2,2" stroke-width="1" stroke="black"/><line class="center" x1="945.5445544554456" y1="185.6841633846154" x2="945.5445544554456" y2="12.356464153846161" stroke-dasharray="2,2" stroke-width="1" stroke="black"/><g class="outlier" transform="translate(153.4653465346534,0)"><circle r="4" stroke-width="1" stroke="black" stroke-opacity="0.3" fill="black" fill-opacity="0.33" cx="0" cy="177.23172323076923"/></g><g class="outlier" transform="translate(252.47524752475243,0)"/><g class="outlier" transform="translate(351.4851485148514,0)"/><g class="outlier" transform="translate(450.49504950495043,0)"><circle r="4" stroke-width="1" stroke="black" stroke-opacity="0.3" fill="black" fill-opacity="0.33" cx="0" cy="194.81195138461538"/></g><g class="outlier" transform="translate(549.5049504950495,0)"/><g class="outlier" transform="translate(648.5148514851485,0)"><circle r="4" stroke-width="1" stroke="black" stroke-opacity="0.3" fill="black" fill-opacity="0.33" cx="0" cy="279.8723672307692"/><circle r="4" stroke-width="1" stroke="black" stroke-opacity="0.3" fill="black" fill-opacity="0.33" cx="0" cy="100.03312446153848"/></g><g class="outlier" transform="translate(747.5247524752475,0)"/><g class="outlier" transform="translate(846.5346534653465,0)"/><g class="outlier" transform="translate(945.5445544554456,0)"/><rect class="box" x="9.900990099009846" y="195.32079684615385" width="89.10891089108911" height="39.05829192307692" fill="white" stroke-width="1" stroke="black"/><rect class="box" x="108.91089108910886" y="215.55150646153848" width="89.10891089108911" height="13.189383076923065" fill="white" stroke-width="1" stroke="black"/><rect class="box" x="207.92079207920787" y="166.17644457692307" width="89.10891089108911" height="54.05587073076924" fill="white" stroke-width="1" stroke="black"/><rect class="box" x="306.93069306930687" y="228.94454334615384" width="89.10891089108911" height="81.82854915384618" fill="white" stroke-width="1" stroke="black"/><rect class="box" x="405.9405940594059" y="223.5437566153846" width="89.10891089108911" height="15.540262153846157" fill="white" stroke-width="1" stroke="black"/><rect class="box" x="504.9504950495049" y="204.5119461923077" width="89.10891089108911" height="35.18078669230769" fill="white" stroke-width="1" stroke="black"/><rect class="box" x="603.9603960396039" y="146.2044507692308" width="89.10891089108911" height="28.28081169230768" fill="white" stroke-width="1" stroke="black"/><rect class="box" x="702.9702970297029" y="99.17449630769232" width="89.10891089108911" height="31.856337730769212" fill="white" stroke-width="1" stroke="black"/><rect class="box" x="801.980198019802" y="167.01801446153848" width="89.10891089108911" height="39.22017523076923" fill="white" stroke-width="1" stroke="black"/><rect class="box" x="900.990099009901" y="104.07110769230769" width="89.10891089108911" height="66.94557200000006" fill="white" stroke-width="1" stroke="black"/><line class="median" x1="9.900990099009846" y1="217.66680430769233" x2="99.00990099009896" y2="217.66680430769233" stroke-width="1" stroke="black"/><line class="median" x1="108.91089108910886" y1="226.85635261538462" x2="198.01980198019797" y2="226.85635261538462" stroke-width="1" stroke="black"/><line class="median" x1="207.92079207920787" y1="192.62088253846156" x2="297.02970297029697" y2="192.62088253846156" stroke-width="1" stroke="black"/><line class="median" x1="306.93069306930687" y1="265.62061807692305" x2="396.039603960396" y2="265.62061807692305" stroke-width="1" stroke="black"/><line class="median" x1="405.9405940594059" y1="236.7384596923077" x2="495.049504950495" y2="236.7384596923077" stroke-width="1" stroke="black"/><line class="median" x1="504.9504950495049" y1="217.54104746153848" x2="594.059405940594" y2="217.54104746153848" stroke-width="1" stroke="black"/><line class="median" x1="603.9603960396039" y1="150.32518000000002" x2="693.069306930693" y2="150.32518000000002" stroke-width="1" stroke="black"/><line class="median" x1="702.9702970297029" y1="113.2638589230769" x2="792.079207920792" y2="113.2638589230769" stroke-width="1" stroke="black"/><line class="median" x1="801.980198019802" y1="181.2877701538462" x2="891.089108910891" y2="181.2877701538462" stroke-width="1" stroke="black"/><line class="median" x1="900.990099009901" y1="107.16076892307694" x2="990.09900990099" y2="107.16076892307694" stroke-width="1" stroke="black"/><g class="whisker" transform="translate(32.17821782178213,0)"><line class="median" x1="0" y1="251.09137323076922" x2="44.554455445544555" y2="251.09137323076922" stroke-width="1" stroke="black"/><line class="median" x1="0" y1="172.97478938461538" x2="44.554455445544555" y2="172.97478938461538" stroke-width="1" stroke="black"/></g><g class="whisker" transform="translate(131.18811881188114,0)"><line class="median" x1="0" y1="240.08806507692307" x2="44.554455445544555" y2="240.08806507692307" stroke-width="1" stroke="black"/><line class="median" x1="0" y1="215.55150646153848" x2="44.554455445544555" y2="215.55150646153848" stroke-width="1" stroke="black"/></g><g class="whisker" transform="translate(230.19801980198014,0)"><line class="median" x1="0" y1="227.4008976923077" x2="44.554455445544555" y2="227.4008976923077" stroke-width="1" stroke="black"/><line class="median" x1="0" y1="162.50884661538464" x2="44.554455445544555" y2="162.50884661538464" stroke-width="1" stroke="black"/></g><g class="whisker" transform="translate(329.20792079207916,0)"><line class="median" x1="0" y1="374.11747046153846" x2="44.554455445544555" y2="374.11747046153846" stroke-width="1" stroke="black"/><line class="median" x1="0" y1="191.02936446153845" x2="44.554455445544555" y2="191.02936446153845" stroke-width="1" stroke="black"/></g><g class="whisker" transform="translate(428.2178217821782,0)"><line class="median" x1="0" y1="243.71676215384613" x2="44.554455445544555" y2="243.71676215384613" stroke-width="1" stroke="black"/><line class="median" x1="0" y1="223.5437566153846" x2="44.554455445544555" y2="223.5437566153846" stroke-width="1" stroke="black"/></g><g class="whisker" transform="translate(527.2277227722772,0)"><line class="median" x1="0" y1="284.4076446153846" x2="44.554455445544555" y2="284.4076446153846" stroke-width="1" stroke="black"/><line class="median" x1="0" y1="187.1647869230769" x2="44.554455445544555" y2="187.1647869230769" stroke-width="1" stroke="black"/></g><g class="whisker" transform="translate(626.2376237623762,0)"><line class="median" x1="0" y1="174.48526246153847" x2="44.554455445544555" y2="174.48526246153847" stroke-width="1" stroke="black"/><line class="median" x1="0" y1="146.2044507692308" x2="44.554455445544555" y2="146.2044507692308" stroke-width="1" stroke="black"/></g><g class="whisker" transform="translate(725.2475247524752,0)"><line class="median" x1="0" y1="142.42801092307695" x2="44.554455445544555" y2="142.42801092307695" stroke-width="1" stroke="black"/><line class="median" x1="0" y1="98.81015692307693" x2="44.554455445544555" y2="98.81015692307693" stroke-width="1" stroke="black"/></g><g class="whisker" transform="translate(824.2574257425742,0)"><line class="median" x1="0" y1="210.62719323076925" x2="44.554455445544555" y2="210.62719323076925" stroke-width="1" stroke="black"/><line class="median" x1="0" y1="132.4411244615385" x2="44.554455445544555" y2="132.4411244615385" stroke-width="1" stroke="black"/></g><g class="whisker" transform="translate(923.2673267326733,0)"><line class="median" x1="0" y1="185.6841633846154" x2="44.554455445544555" y2="185.6841633846154" stroke-width="1" stroke="black"/><line class="median" x1="0" y1="12.356464153846161" x2="44.554455445544555" y2="12.356464153846161" stroke-width="1" stroke="black"/></g></g></svg>