<?xml version="1.0" standalone="no"?>
<svg xmlns="http://www.w3.org/2000/svg" width="1120" height="557.8499984741211"><g transform="translate(70,20)"><g class="x axis" transform="translate(0,400)" fill="none" font-size="10" font-family="sans-serif" text-anchor="middle"><path class="domain" stroke="#000" d="M0.5,6V0.5H1000.5V6"/><g class="tick" opacity="1" transform="translate(54.4554455445544,0)"><line stroke="#000" y2="6"/><text fill="#000" y="9" dy="-0.5em" style="text-anchor: end;" dx="-.8em" transform="rotate(-90)">No_LI (n=3)</text></g><g class="tick" opacity="1" transform="translate(153.4653465346534,0)"><line stroke="#000" y2="6"/><text fill="#000" y="9" dy="-0.5em" style="text-anchor: end;" dx="-.8em" transform="rotate(-90)">No_SI (n=5)</text></g><g class="tick" opacity="1" transform="translate(252.47524752475243,0)"><line stroke="#000" y2="6"/><text fill="#000" y="9" dy="-0.5em" style="text-anchor: end;" dx="-.8em" transform="rotate(-90)">Yes_1wk_LI (n=4)</text></g><g class="tick" opacity="1" transform="translate(351.4851485148514,0)"><line stroke="#000" y2="6"/><text fill="#000" y="9" dy="-0.5em" style="text-anchor: end;" dx="-.8em" transform="rotate(-90)">Yes_1wk_SI (n=4)</text></g><g class="tick" opacity="1" transform="translate(450.49504950495043,0)"><line stroke="#000" y2="6"/><text fill="#000" y="9" dy="-0.5em" style="text-anchor: end;" dx="-.8em" transform="rotate(-90)">Yes_2wk_LI (n=5)</text></g><g class="tick" opacity="1" transform="translate(549.5049504950495,0)"><line stroke="#000" y2="6"/><text fill="#000" y="9" dy="-0.5em" style="text-anchor: end;" dx="-.8em" transform="rotate(-90)">Yes_2wk_SI (n=4)</text></g><g class="tick" opacity="1" transform="translate(648.5148514851485,0)"><line stroke="#000" y2="6"/><text fill="#000" y="9" dy="-0.5em" style="text-anchor: end;" dx="-.8em" transform="rotate(-90)">Yes_3wk_LI (n=5)</text></g><g class="tick" opacity="1" transform="translate(747.5247524752475,0)"><line stroke="#000" y2="6"/><text fill="#000" y="9" dy="-0.5em" style="text-anchor: end;" dx="-.8em" transform="rotate(-90)">Yes_3wk_SI (n=4)</text></g><g class="tick" opacity="1" transform="translate(846.5346534653465,0)"><line stroke="#000" y2="6"/><text fill="#000" y="9" dy="-0.5em" style="text-anchor: end;" dx="-.8em" transform="rotate(-90)">Yes_4wk_LI (n=5)</text></g><g class="tick" opacity="1" transform="translate(945.5445544554456,0)"><line stroke="#000" y2="6"/><text fill="#000" y="9" dy="-0.5em" style="text-anchor: end;" dx="-.8em" transform="rotate(-90)">Yes_4wk_SI (n=5)</text></g></g><g class="y axis" fill="none" font-size="10" font-family="sans-serif" text-anchor="end"><path class="domain" stroke="#000" d="M-6,400.5H0.5V0.5H-6"/><g class="tick" opacity="1" transform="translate(0,400.5)"><line stroke="#000" x2="-6"/><text fill="#000" x="-9" dy="0.32em">50</text></g><g class="tick" opacity="1" transform="translate(0,356.05555555555554)"><line stroke="#000" x2="-6"/><text fill="#000" x="-9" dy="0.32em">100</text></g><g class="tick" opacity="1" transform="translate(0,311.6111111111111)"><line stroke="#000" x2="-6"/><text fill="#000" x="-9" dy="0.32em">150</text></g><g class="tick" opacity="1" transform="translate(0,267.1666666666667)"><line stroke="#000" x2="-6"/><text fill="#000" x="-9" dy="0.32em">200</text></g><g class="tick" opacity="1" transform="translate(0,222.72222222222223)"><line stroke="#000" x2="-6"/><text fill="#000" x="-9" dy="0.32em">250</text></g><g class="tick" opacity="1" transform="translate(0,178.27777777777777)"><line stroke="#000" x2="-6"/><text fill="#000" x="-9" dy="0.32em">300</text></g><g class="tick" opacity="1" transform="translate(0,133.83333333333337)"><line stroke="#000" x2="-6"/><text fill="#000" x="-9" dy="0.32em">350</text></g><g class="tick" opacity="1" transform="translate(0,89.38888888888886)"><line stroke="#000" x2="-6"/><text fill="#000" x="-9" dy="0.32em">400</text></g><g class="tick" opacity="1" transform="translate(0,44.94444444444446)"><line stroke="#000" x2="-6"/><text fill="#000" x="-9" dy="0.32em">450</text></g><g class="tick" opacity="1" transform="translate(0,0.5)"><line stroke="#000" x2="-6"/><text fill="#000" x="-9" dy="0.32em">500</text></g></g><text class="x label" text-anchor="middle" style="font: 12px sans-serif;" transform="translate(500,527.8499984741211)">RvInfected</text><text class="y label" text-anchor="middle" style="font: 12px sans-serif;" transform="translate(-50,200)rotate(-90)">observed_otus</text><g class="outlier" transform="translate(54.4554455445544,0)"/><line class="center" x1="54.4554455445544" y1="72" x2="54.4554455445544" y2="29.33333333333337" stroke-dasharray="2,2" stroke-width="1" stroke="black"/><line class="center" x1="153.4653465346534" y1="350.22222222222223" x2="153.4653465346534" y2="246.22222222222223" stroke-dasharray="2,2" stroke-width="1" stroke="black"/><line class="center" x1="252.47524752475243" y1="159.11111111111111" x2="252.47524752475243" y2="56.888888888888914" stroke-dasharray="2,2" stroke-width="1" stroke="black"/><line class="center" x1="351.4851485148514" y1="366.22222222222223" x2="351.4851485148514" y2="235.55555555555557" stroke-dasharray="2,2" stroke-width="1" stroke="black"/><line class="center" x1="450.49504950495043" y1="136.88888888888886" x2="450.49504950495043" y2="67.55555555555554" stroke-dasharray="2,2" stroke-width="1" stroke="black"/><line class="center" x1="549.5049504950495" y1="341.3333333333333" x2="549.5049504950495" y2="239.11111111111111" stroke-dasharray="2,2" stroke-width="1" stroke="black"/><line class="center" x1="648.5148514851485" y1="221.33333333333334" x2="648.5148514851485" y2="48" stroke-dasharray="2,2" stroke-width="1" stroke="black"/><line class="center" x1="747.5247524752475" y1="358.22222222222223" x2="747.5247524752475" y2="333.33333333333337" stroke-dasharray="2,2" stroke-width="1" stroke="black"/><line class="center" x1="846.5346534653465" y1="111.11111111111114" x2="846.5346534653465" y2="82.66666666666669" stroke-dasharray="2,2" stroke-width="1" stroke="black"/><line class="center" x1="945.5445544554456" y1="351.1111111111111" x2="945.5445544554456" y2="297.77777777777777" stroke-dasharray="2,2" stroke-width="1" stroke="black"/><g class="outlier" transform="translate(153.4653465346534,0)"/><g class="outlier" transform="translate(252.47524752475243,0)"/><g class="outlier" transform="translate(351.4851485148514,0)"/><g class="outlier" transform="translate(450.49504950495043,0)"/><g class="outlier" transform="translate(549.5049504950495,0)"/><g class="outlier" transform="translate(648.5148514851485,0)"/><g class="outlier" transform="translate(747.5247524752475,0)"/><g class="outlier" transform="translate(846.5346534653465,0)"/><g class="outlier" transform="translate(945.5445544554456,0)"/><rect class="box" x="9.900990099009846" y="34.22222222222223" width="89.10891089108911" height="21.333333333333314" fill="white" stroke-width="1" stroke="black"/><rect class="box" x="108.91089108910886" y="283.55555555555554" width="89.10891089108911" height="26.666666666666686" fill="white" stroke-width="1" stroke="black"/><rect class="box" x="207.92079207920787" y="86.88888888888886" width="89.10891089108911" height="34.888888888888914" fill="white" stroke-width="1" stroke="black"/><rect class="box" x="306.93069306930687" y="270.22222222222223" width="89.10891089108911" height="67.33333333333331" fill="white" stroke-width="1" stroke="black"/><rect class="box" x="405.9405940594059" y="99.5555555555556" width="89.10891089108911" height="23.999999999999943" fill="white" stroke-width="1" stroke="black"/><rect class="box" x="504.9504950495049" y="277.77777777777777" width="89.10891089108911" height="56.22222222222223" fill="white" stroke-width="1" stroke="black"/><rect class="box" x="603.9603960396039" y="59.55555555555554" width="89.10891089108911" height="83.55555555555554" fill="white" stroke-width="1" stroke="black"/><rect class="box" x="702.9702970297029" y="336.6666666666667" width="89.10891089108911" height="8.888888888888857" fill="white" stroke-width="1" stroke="black"/><rect class="box" x="801.980198019802" y="84.44444444444446" width="89.10891089108911" height="14.222222222222229" fill="white" stroke-width="1" stroke="black"/><rect class="box" x="900.990099009901" y="299.55555555555554" width="89.10891089108911" height="36.44444444444446" fill="white" stroke-width="1" stroke="black"/><line class="median" x1="9.900990099009846" y1="39.111111111111086" x2="99.00990099009896" y2="39.111111111111086" stroke-width="1" stroke="black"/><line class="median" x1="108.91089108910886" y1="284.44444444444446" x2="198.01980198019797" y2="284.44444444444446" stroke-width="1" stroke="black"/><line class="median" x1="207.92079207920787" y1="103.11111111111109" x2="297.02970297029697" y2="103.11111111111109" stroke-width="1" stroke="black"/><line class="median" x1="306.93069306930687" y1="304.8888888888889" x2="396.039603960396" y2="304.8888888888889" stroke-width="1" stroke="black"/><line class="median" x1="405.9405940594059" y1="109.33333333333331" x2="495.049504950495" y2="109.33333333333331" stroke-width="1" stroke="black"/><line class="median" x1="504.9504950495049" y1="311.1111111111111" x2="594.059405940594" y2="311.1111111111111" stroke-width="1" stroke="black"/><line class="median" x1="603.9603960396039" y1="65.77777777777777" x2="693.069306930693" y2="65.77777777777777" stroke-width="1" stroke="black"/><line class="median" x1="702.9702970297029" y1="339.55555555555554" x2="792.079207920792" y2="339.55555555555554" stroke-width="1" stroke="black"/><line class="median" x1="801.980198019802" y1="87.11111111111109" x2="891.089108910891" y2="87.11111111111109" stroke-width="1" stroke="black"/><line class="median" x1="900.990099009901" y1="309.33333333333337" x2="990.09900990099" y2="309.33333333333337" stroke-width="1" stroke="black"/><g class="whisker" transform="translate(32.17821782178213,0)"><line class="median" x1="0" y1="72" x2="44.554455445544555" y2="72" stroke-width="1" stroke="black"/><line class="median" x1="0" y1="29.33333333333337" x2="44.554455445544555" y2="29.33333333333337" stroke-width="1" stroke="black"/></g><g class="whisker" transform="translate(131.18811881188114,0)"><line class="median" x1="0" y1="350.22222222222223" x2="44.554455445544555" y2="350.22222222222223" stroke-width="1" stroke="black"/><line class="median" x1="0" y1="246.22222222222223" x2="44.554455445544555" y2="246.22222222222223" stroke-width="1" stroke="black"/></g><g class="whisker" transform="translate(230.19801980198014,0)"><line class="median" x1="0" y1="159.11111111111111" x2="44.554455445544555" y2="159.11111111111111" stroke-width="1" stroke="black"/><line class="median" x1="0" y1="56.888888888888914" x2="44.554455445544555" y2="56.888888888888914" stroke-width="1" stroke="black"/></g><g class="whisker" transform="translate(329.20792079207916,0)"><line class="median" x1="0" y1="366.22222222222223" x2="44.554455445544555" y2="366.22222222222223" stroke-width="1" stroke="black"/><line class="median" x1="0" y1="235.55555555555557" x2="44.554455445544555" y2="235.55555555555557" stroke-width="1" stroke="black"/></g><g class="whisker" transform="translate(428.2178217821782,0)"><line class="median" x1="0" y1="136.88888888888886" x2="44.554455445544555" y2="136.88888888888886" stroke-width="1" stroke="black"/><line class="median" x1="0" y1="67.55555555555554" x2="44.554455445544555" y2="67.55555555555554" stroke-width="1" stroke="black"/></g><g class="whisker" transform="translate(527.2277227722772,0)"><line class="median" x1="0" y1="341.3333333333333" x2="44.554455445544555" y2="341.3333333333333" stroke-width="1" stroke="black"/><line class="median" x1="0" y1="239.11111111111111" x2="44.554455445544555" y2="239.11111111111111" stroke-width="1" stroke="black"/></g><g class="whisker" transform="translate(626.2376237623762,0)"><line class="median" x1="0" y1="221.33333333333334" x2="44.554455445544555" y2="221.33333333333334" stroke-width="1" stroke="black"/><line class="median" x1="0" y1="48" x2="44.554455445544555" y2="48" stroke-width="1" stroke="black"/></g><g class="whisker" transform="translate(725.2475247524752,0)"><line class="median" x1="0" y1="358.22222222222223" x2="44.554455445544555" y2="358.22222222222223" stroke-width="1" stroke="black"/><line class="median" x1="0" y1="333.33333333333337" x2="44.554455445544555" y2="333.33333333333337" stroke-width="1" stroke="black"/></g><g class="whisker" transform="translate(824.2574257425742,0)"><line class="median" x1="0" y1="111.11111111111114" x2="44.554455445544555" y2="111.11111111111114" stroke-width="1" stroke="black"/><line class="median" x1="0" y1="82.66666666666669" x2="44.554455445544555" y2="82.66666666666669" stroke-width="1" stroke="black"/></g><g class="whisker" transform="translate(923.2673267326733,0)"><line class="median" x1="0" y1="351.1111111111111" x2="44.554455445544555" y2="351.1111111111111" stroke-width="1" stroke="black"/><line class="median" x1="0" y1="297.77777777777777" x2="44.554455445544555" y2="297.77777777777777" stroke-width="1" stroke="black"/></g></g></svg>