<?xml version="1.0" standalone="no"?>
<svg xmlns="http://www.w3.org/2000/svg" width="1120" height="557.8499984741211"><g transform="translate(70,20)"><g class="x axis" transform="translate(0,400)" fill="none" font-size="10" font-family="sans-serif" text-anchor="middle"><path class="domain" stroke="#000" d="M0.5,6V0.5H1000.5V6"/><g class="tick" opacity="1" transform="translate(54.4554455445544,0)"><line stroke="#000" y2="6"/><text fill="#000" y="9" dy="-0.5em" style="text-anchor: end;" dx="-.8em" transform="rotate(-90)">No_LI (n=3)</text></g><g class="tick" opacity="1" transform="translate(153.4653465346534,0)"><line stroke="#000" y2="6"/><text fill="#000" y="9" dy="-0.5em" style="text-anchor: end;" dx="-.8em" transform="rotate(-90)">No_SI (n=5)</text></g><g class="tick" opacity="1" transform="translate(252.47524752475243,0)"><line stroke="#000" y2="6"/><text fill="#000" y="9" dy="-0.5em" style="text-anchor: end;" dx="-.8em" transform="rotate(-90)">Yes_1wk_LI (n=4)</text></g><g class="tick" opacity="1" transform="translate(351.4851485148514,0)"><line stroke="#000" y2="6"/><text fill="#000" y="9" dy="-0.5em" style="text-anchor: end;" dx="-.8em" transform="rotate(-90)">Yes_1wk_SI (n=4)</text></g><g class="tick" opacity="1" transform="translate(450.49504950495043,0)"><line stroke="#000" y2="6"/><text fill="#000" y="9" dy="-0.5em" style="text-anchor: end;" dx="-.8em" transform="rotate(-90)">Yes_2wk_LI (n=5)</text></g><g class="tick" opacity="1" transform="translate(549.5049504950495,0)"><line stroke="#000" y2="6"/><text fill="#000" y="9" dy="-0.5em" style="text-anchor: end;" dx="-.8em" transform="rotate(-90)">Yes_2wk_SI (n=4)</text></g><g class="tick" opacity="1" transform="translate(648.5148514851485,0)"><line stroke="#000" y2="6"/><text fill="#000" y="9" dy="-0.5em" style="text-anchor: end;" dx="-.8em" transform="rotate(-90)">Yes_3wk_LI (n=5)</text></g><g class="tick" opacity="1" transform="translate(747.5247524752475,0)"><line stroke="#000" y2="6"/><text fill="#000" y="9" dy="-0.5em" style="text-anchor: end;" dx="-.8em" transform="rotate(-90)">Yes_3wk_SI (n=4)</text></g><g class="tick" opacity="1" transform="translate(846.5346534653465,0)"><line stroke="#000" y2="6"/><text fill="#000" y="9" dy="-0.5em" style="text-anchor: end;" dx="-.8em" transform="rotate(-90)">Yes_4wk_LI (n=5)</text></g><g class="tick" opacity="1" transform="translate(945.5445544554456,0)"><line stroke="#000" y2="6"/><text fill="#000" y="9" dy="-0.5em" style="text-anchor: end;" dx="-.8em" transform="rotate(-90)">Yes_4wk_SI (n=5)</text></g></g><g class="y axis" fill="none" font-size="10" font-family="sans-serif" text-anchor="end"><path class="domain" stroke="#000" d="M-6,400.5H0.5V0.5H-6"/><g class="tick" opacity="1" transform="translate(0,400.5)"><line stroke="#000" x2="-6"/><text fill="#000" x="-9" dy="0.32em">1.0</text></g><g class="tick" opacity="1" transform="translate(0,369.7307692307692)"><line stroke="#000" x2="-6"/><text fill="#000" x="-9" dy="0.32em">1.5</text></g><g class="tick" opacity="1" transform="translate(0,338.96153846153845)"><line stroke="#000" x2="-6"/><text fill="#000" x="-9" dy="0.32em">2.0</text></g><g class="tick" opacity="1" transform="translate(0,308.1923076923077)"><line stroke="#000" x2="-6"/><text fill="#000" x="-9" dy="0.32em">2.5</text></g><g class="tick" opacity="1" transform="translate(0,277.4230769230769)"><line stroke="#000" x2="-6"/><text fill="#000" x="-9" dy="0.32em">3.0</text></g><g class="tick" opacity="1" transform="translate(0,246.65384615384613)"><line stroke="#000" x2="-6"/><text fill="#000" x="-9" dy="0.32em">3.5</text></g><g class="tick" opacity="1" transform="translate(0,215.8846153846154)"><line stroke="#000" x2="-6"/><text fill="#000" x="-9" dy="0.32em">4.0</text></g><g class="tick" opacity="1" transform="translate(0,185.1153846153846)"><line stroke="#000" x2="-6"/><text fill="#000" x="-9" dy="0.32em">4.5</text></g><g class="tick" opacity="1" transform="translate(0,154.34615384615384)"><line stroke="#000" x2="-6"/><text fill="#000" x="-9" dy="0.32em">5.0</text></g><g class="tick" opacity="1" transform="translate(0,123.5769230769231)"><line stroke="#000" x2="-6"/><text fill="#000" x="-9" dy="0.32em">5.5</text></g><g class="tick" opacity="1" transform="translate(0,92.80769230769226)"><line stroke="#000" x2="-6"/><text fill="#000" x="-9" dy="0.32em">6.0</text></g><g class="tick" opacity="1" transform="translate(0,62.03846153846155)"><line stroke="#000" x2="-6"/><text fill="#000" x="-9" dy="0.32em">6.5</text></g><g class="tick" opacity="1" transform="translate(0,31.269230769230774)"><line stroke="#000" x2="-6"/><text fill="#000" x="-9" dy="0.32em">7.0</text></g><g class="tick" opacity="1" transform="translate(0,0.5)"><line stroke="#000" x2="-6"/><text fill="#000" x="-9" dy="0.32em">7.5</text></g></g><text class="x label" text-anchor="middle" style="font: 12px sans-serif;" transform="translate(500,527.8499984741211)">RvInfected</text><text class="y label" text-anchor="middle" style="font: 12px sans-serif;" transform="translate(-50,200)rotate(-90)">shannon</text><g class="outlier" transform="translate(54.4554455445544,0)"/><g class="outlier" transform="translate(153.4653465346534,0)"><circle r="4" stroke-width="1" stroke="black" stroke-opacity="0.3" fill="black" fill-opacity="0.33" cx="0" cy="181.36156251076923"/><circle r="4" stroke-width="1" stroke="black" stroke-opacity="0.3" fill="black" fill-opacity="0.33" cx="0" cy="113.16636763076929"/></g><g class="outlier" transform="translate(252.47524752475243,0)"><circle r="4" stroke-width="1" stroke="black" stroke-opacity="0.3" fill="black" fill-opacity="0.33" cx="0" cy="67.16604494153847"/></g><g class="outlier" transform="translate(351.4851485148514,0)"><circle r="4" stroke-width="1" stroke="black" stroke-opacity="0.3" fill="black" fill-opacity="0.33" cx="0" cy="371.5714903569231"/></g><line class="center" x1="54.4554455445544" y1="52.25224717538464" x2="54.4554455445544" y2="25.17887060307686" stroke-dasharray="2,2" stroke-width="1" stroke="black"/><line class="center" x1="153.4653465346534" y1="142.53436829538464" x2="153.4653465346534" y2="132.86002153846158" stroke-dasharray="2,2" stroke-width="1" stroke="black"/><line class="center" x1="252.47524752475243" y1="46.78117161230773" x2="252.47524752475243" y2="39.32777915692304" stroke-dasharray="2,2" stroke-width="1" stroke="black"/><line class="center" x1="351.4851485148514" y1="153.3855002769231" x2="351.4851485148514" y2="141.90168532307695" stroke-dasharray="2,2" stroke-width="1" stroke="black"/><line class="center" x1="450.49504950495043" y1="63.42784326153844" x2="450.49504950495043" y2="44.574991852307676" stroke-dasharray="2,2" stroke-width="1" stroke="black"/><line class="center" x1="549.5049504950495" y1="164.04347808000003" x2="549.5049504950495" y2="139.37446809846153" stroke-dasharray="2,2" stroke-width="1" stroke="black"/><line class="center" x1="648.5148514851485" y1="59.695648012307686" x2="648.5148514851485" y2="18.937803298461574" stroke-dasharray="2,2" stroke-width="1" stroke="black"/><line class="center" x1="747.5247524752475" y1="150.78164472615381" x2="747.5247524752475" y2="142.3518489907692" stroke-dasharray="2,2" stroke-width="1" stroke="black"/><line class="center" x1="846.5346534653465" y1="53.324240744615395" x2="846.5346534653465" y2="25.358246135384604" stroke-dasharray="2,2" stroke-width="1" stroke="black"/><line class="center" x1="945.5445544554456" y1="143.77245607999998" x2="945.5445544554456" y2="118.04814567384614" stroke-dasharray="2,2" stroke-width="1" stroke="black"/><g class="outlier" transform="translate(450.49504950495043,0)"/><g class="outlier" transform="translate(549.5049504950495,0)"/><g class="outlier" transform="translate(648.5148514851485,0)"/><g class="outlier" transform="translate(747.5247524752475,0)"/><g class="outlier" transform="translate(846.5346534653465,0)"/><g class="outlier" transform="translate(945.5445544554456,0)"/><rect class="box" x="9.900990099009846" y="30.339441184615396" width="89.10891089108911" height="13.536688286153776" fill="white" stroke-width="1" stroke="black"/><rect class="box" x="108.91089108910886" y="132.86002153846158" width="89.10891089108911" height="9.674346756923057" fill="white" stroke-width="1" stroke="black"/><rect class="box" x="207.92079207920787" y="43.22733187538461" width="89.10891089108911" height="8.650058069230738" fill="white" stroke-width="1" stroke="black"/><rect class="box" x="306.93069306930687" y="149.22716579230772" width="89.10891089108911" height="58.70483200461538" fill="white" stroke-width="1" stroke="black"/><rect class="box" x="405.9405940594059" y="48.687075544615425" width="89.10891089108911" height="9.427765963076865" fill="white" stroke-width="1" stroke="black"/><rect class="box" x="504.9504950495049" y="143.89021206615382" width="89.10891089108911" height="19.24719252307696" fill="white" stroke-width="1" stroke="black"/><rect class="box" x="603.9603960396039" y="30.5028219261539" width="89.10891089108911" height="24.879245169230728" fill="white" stroke-width="1" stroke="black"/><rect class="box" x="702.9702970297029" y="143.67925023076924" width="89.10891089108911" height="3.2172608199999218" fill="white" stroke-width="1" stroke="black"/><rect class="box" x="801.980198019802" y="32.90564165538461" width="89.10891089108911" height="14.477012412307715" fill="white" stroke-width="1" stroke="black"/><rect class="box" x="900.990099009901" y="121.18913329230764" width="89.10891089108911" height="15.579323095384666" fill="white" stroke-width="1" stroke="black"/><line class="median" x1="9.900990099009846" y1="35.500011766153875" x2="99.00990099009896" y2="35.500011766153875" stroke-width="1" stroke="black"/><line class="median" x1="108.91089108910886" y1="135.41119279999998" x2="198.01980198019797" y2="135.41119279999998" stroke-width="1" stroke="black"/><line class="median" x1="207.92079207920787" y1="45.65417719692306" x2="297.02970297029697" y2="45.65417719692306" stroke-width="1" stroke="black"/><line class="median" x1="306.93069306930687" y1="152.52724644615387" x2="396.039603960396" y2="152.52724644615387" stroke-width="1" stroke="black"/><line class="median" x1="405.9405940594059" y1="53.34667849230766" x2="495.049504950495" y2="53.34667849230766" stroke-width="1" stroke="black"/><line class="median" x1="504.9504950495049" y1="154.1154200738461" x2="594.059405940594" y2="154.1154200738461" stroke-width="1" stroke="black"/><line class="median" x1="603.9603960396039" y1="48.27724419692305" x2="693.069306930693" y2="48.27724419692305" stroke-width="1" stroke="black"/><line class="median" x1="702.9702970297029" y1="144.86159190153845" x2="792.079207920792" y2="144.86159190153845" stroke-width="1" stroke="black"/><line class="median" x1="801.980198019802" y1="43.57653218461542" x2="891.089108910891" y2="43.57653218461542" stroke-width="1" stroke="black"/><line class="median" x1="900.990099009901" y1="135.6597431446154" x2="990.09900990099" y2="135.6597431446154" stroke-width="1" stroke="black"/><g class="whisker" transform="translate(32.17821782178213,0)"><line class="median" x1="0" y1="52.25224717538464" x2="44.554455445544555" y2="52.25224717538464" stroke-width="1" stroke="black"/><line class="median" x1="0" y1="25.17887060307686" x2="44.554455445544555" y2="25.17887060307686" stroke-width="1" stroke="black"/></g><g class="whisker" transform="translate(131.18811881188114,0)"><line class="median" x1="0" y1="142.53436829538464" x2="44.554455445544555" y2="142.53436829538464" stroke-width="1" stroke="black"/><line class="median" x1="0" y1="132.86002153846158" x2="44.554455445544555" y2="132.86002153846158" stroke-width="1" stroke="black"/></g><g class="whisker" transform="translate(230.19801980198014,0)"><line class="median" x1="0" y1="46.78117161230773" x2="44.554455445544555" y2="46.78117161230773" stroke-width="1" stroke="black"/><line class="median" x1="0" y1="39.32777915692304" x2="44.554455445544555" y2="39.32777915692304" stroke-width="1" stroke="black"/></g><g class="whisker" transform="translate(329.20792079207916,0)"><line class="median" x1="0" y1="153.3855002769231" x2="44.554455445544555" y2="153.3855002769231" stroke-width="1" stroke="black"/><line class="median" x1="0" y1="141.90168532307695" x2="44.554455445544555" y2="141.90168532307695" stroke-width="1" stroke="black"/></g><g class="whisker" transform="translate(428.2178217821782,0)"><line class="median" x1="0" y1="63.42784326153844" x2="44.554455445544555" y2="63.42784326153844" stroke-width="1" stroke="black"/><line class="median" x1="0" y1="44.574991852307676" x2="44.554455445544555" y2="44.574991852307676" stroke-width="1" stroke="black"/></g><g class="whisker" transform="translate(527.2277227722772,0)"><line class="median" x1="0" y1="164.04347808000003" x2="44.554455445544555" y2="164.04347808000003" stroke-width="1" stroke="black"/><line class="median" x1="0" y1="139.37446809846153" x2="44.554455445544555" y2="139.37446809846153" stroke-width="1" stroke="black"/></g><g class="whisker" transform="translate(626.2376237623762,0)"><line class="median" x1="0" y1="59.695648012307686" x2="44.554455445544555" y2="59.695648012307686" stroke-width="1" stroke="black"/><line class="median" x1="0" y1="18.937803298461574" x2="44.554455445544555" y2="18.937803298461574" stroke-width="1" stroke="black"/></g><g class="whisker" transform="translate(725.2475247524752,0)"><line class="median" x1="0" y1="150.78164472615381" x2="44.554455445544555" y2="150.78164472615381" stroke-width="1" stroke="black"/><line class="median" x1="0" y1="142.3518489907692" x2="44.554455445544555" y2="142.3518489907692" stroke-width="1" stroke="black"/></g><g class="whisker" transform="translate(824.2574257425742,0)"><line class="median" x1="0" y1="53.324240744615395" x2="44.554455445544555" y2="53.324240744615395" stroke-width="1" stroke="black"/><line class="median" x1="0" y1="25.358246135384604" x2="44.554455445544555" y2="25.358246135384604" stroke-width="1" stroke="black"/></g><g class="whisker" transform="translate(923.2673267326733,0)"><line class="median" x1="0" y1="143.77245607999998" x2="44.554455445544555" y2="143.77245607999998" stroke-width="1" stroke="black"/><line class="median" x1="0" y1="118.04814567384614" x2="44.554455445544555" y2="118.04814567384614" stroke-width="1" stroke="black"/></g></g></svg>